<svg xmlns="http://www.w3.org/2000/svg" width="19.852" height="19.896" viewBox="0 0 19.852 19.896"><defs><style>.a{fill:#fff;}</style></defs><g transform="translate(761.326 -192)"><path d="M-753.42,192h.31c.411.235.475.372.392.854-.1.605-.195,1.214-.324,1.814a.526.526,0,0,0,.21.582c1.169,1.04,2.323,2.1,3.479,3.152a1.569,1.569,0,0,1,.493,1.532c-.166.923-.326,1.846-.489,2.77-.3,1.681-.589,3.363-.892,5.043a1.456,1.456,0,0,1-1.318,1.231,5.349,5.349,0,0,1-1.224-.128c-2.4-.417-4.8-.847-7.208-1.269a1.551,1.551,0,0,1-1.31-1.834q.679-3.918,1.373-7.834a1.527,1.527,0,0,1,.982-1.207c.358-.147.718-.29,1.077-.435q1.769-.712,3.536-1.427a.228.228,0,0,0,.106-.152c.125-.674.255-1.347.357-2.025A.809.809,0,0,1-753.42,192Zm-.635,6.708c.026-.159.052-.3.072-.45a.389.389,0,0,0-.323-.454.385.385,0,0,0-.432.3,2.035,2.035,0,0,0-.067.362c-.008.128-.073.154-.183.171a2.549,2.549,0,0,0-.543.125,1.691,1.691,0,0,0-.5,2.844c.152.12.3.246.458.357.1.066.143.125.108.252-.044.161-.06.33-.089.5-.121.687-.242,1.373-.364,2.068-.044-.008-.076-.011-.106-.018a2.057,2.057,0,0,1-.871-.523.374.374,0,0,0-.554.019.391.391,0,0,0,.039.556,2.649,2.649,0,0,0,1.225.71,1.178,1.178,0,0,1,.125.045c-.028.172-.061.33-.08.489a.386.386,0,0,0,.316.474.394.394,0,0,0,.448-.357,2.383,2.383,0,0,0,.053-.325c.01-.14.066-.2.214-.2a1.925,1.925,0,0,0,1.086-.418,1.951,1.951,0,0,0,.137-3.1,4.878,4.878,0,0,0-.587-.374.159.159,0,0,1-.092-.2c.07-.349.123-.7.185-1.051.059-.334.121-.668.195-1.07.213.177.389.313.553.463a.4.4,0,0,0,.584.043.391.391,0,0,0-.026-.585A2.229,2.229,0,0,0-754.055,198.708Z"/><path d="M-591.073,192h.271a.731.731,0,0,1,.463.634c.081.583.178,1.164.278,1.744a.271.271,0,0,0,.13.179q2.241.963,4.488,1.912a1.6,1.6,0,0,1,1,1.3c.152.912.317,1.822.477,2.733q.614,3.487,1.229,6.974c.071.4.153.8.231,1.194v.505c-.011.015-.027.029-.031.046a1.533,1.533,0,0,1-1.32,1.244q-.809.145-1.619.286-2.63.458-5.261.916c-.411.072-.822.152-1.232.228h-.349a.177.177,0,0,0-.049-.029,1.674,1.674,0,0,1-1.3-1.8c.122.019.242.036.362.058a2.718,2.718,0,0,0,3.2-2.262q.663-3.812,1.345-7.621a2.812,2.812,0,0,0-.927-2.782c-.724-.646-1.436-1.3-2.155-1.956-.051-.046-.11-.082-.183-.135.262-.229.479-.432.712-.615a.2.2,0,0,0,.087-.224c-.094-.555-.178-1.111-.269-1.666C-591.568,192.383-591.484,192.205-591.073,192Z" transform="translate(-158.973)"/><path class="a" d="M-654.812,340.991a1.335,1.335,0,0,0,1.18-1.189,1.074,1.074,0,0,0-.771-1.136Zm.165-5.423a.937.937,0,0,0-.838.741.852.852,0,0,0,.53,1.007Z" transform="translate(-100.331 -136.129)"/><path d="M-641.99,397.691l.409-2.325a1.074,1.074,0,0,1,.771,1.137A1.335,1.335,0,0,1-641.99,397.691Z" transform="translate(-113.152 -192.829)"/><path d="M-654.646,335.568l-.308,1.748a.852.852,0,0,1-.53-1.007A.937.937,0,0,1-654.646,335.568Z" transform="translate(-100.331 -136.129)"/></g></svg>