<svg xmlns="http://www.w3.org/2000/svg" width="45" height="45" viewBox="0 0 45 45"><defs><style>.a{fill:#f54748;}</style></defs><path class="a" d="M9.141,19.688H2.109A2.109,2.109,0,0,0,0,21.8V42.891A2.109,2.109,0,0,0,2.109,45H9.141a2.109,2.109,0,0,0,2.109-2.109V21.8A2.109,2.109,0,0,0,9.141,19.688Zm-3.516,21.8a2.109,2.109,0,1,1,2.109-2.109A2.109,2.109,0,0,1,5.625,41.484ZM33.75,7.159c0,3.728-2.283,5.819-2.925,8.31h8.941A5.251,5.251,0,0,1,45,20.575,6.364,6.364,0,0,1,43.291,24.9l-.01.01a7.342,7.342,0,0,1-.818,6.985,6.95,6.95,0,0,1-1.44,6.57,4.666,4.666,0,0,1-.54,3.923C38.69,44.964,34.244,45,30.484,45h-.25c-4.244,0-7.717-1.547-10.508-2.788A13.832,13.832,0,0,0,15.1,40.79a1.055,1.055,0,0,1-1.036-1.055V20.947a1.054,1.054,0,0,1,.313-.749c3.482-3.44,4.979-7.083,7.833-9.941,1.3-1.3,1.774-3.273,2.232-5.177C24.83,3.453,25.648,0,27.422,0,29.531,0,33.75.7,33.75,7.159Z"/></svg>