<?xml version="1.0" encoding="utf-8"?>
<!-- Generator: Adobe Illustrator 25.2.0, SVG Export Plug-In . SVG Version: 6.00 Build 0)  -->
<svg version="1.1" id="Layer_1" xmlns="http://www.w3.org/2000/svg" xmlns:xlink="http://www.w3.org/1999/xlink" x="0px" y="0px"
	 viewBox="0 0 198 201" style="enable-background:new 0 0 198 201;" xml:space="preserve">
<style type="text/css">
	.st0{fill:#B12325;}
</style>
<path id="Icon_material-location-on" class="st0" d="M97,6C60.9,6,31.6,35.2,31.6,71.4c0,0,0,0.1,0,0.1C31.6,120.5,97,193,97,193
	s65.4-72.5,65.4-121.5C162.5,35.3,133.2,6,97,6C97.1,6,97,6,97,6z M97,94.8c-12.9,0-23.4-10.5-23.4-23.4c0-12.9,10.5-23.4,23.4-23.4
	s23.4,10.5,23.4,23.4l0,0C120.4,84.4,109.9,94.8,97,94.8z"/>
</svg>
