<svg xmlns="http://www.w3.org/2000/svg" xmlns:xlink="http://www.w3.org/1999/xlink" width="100" height="100" viewBox="0 0 100 100">
  <defs>
    <clipPath id="clip-Promo">
      <rect width="100" height="100"/>
    </clipPath>
  </defs>
  <g id="Promo" clip-path="url(#clip-Promo)">
    <path id="bxs-offer" d="M92.127,50.518l5.25-9.074a4.756,4.756,0,0,0-1.734-6.5L86.56,29.7V19.235A4.756,4.756,0,0,0,81.8,14.479H71.348L66.1,5.4a4.794,4.794,0,0,0-2.885-2.216,4.724,4.724,0,0,0-3.611.476L50.521,8.912,41.437,3.658a4.756,4.756,0,0,0-6.5,1.741l-5.25,9.08H19.234a4.756,4.756,0,0,0-4.756,4.756V29.691l-9.083,5.25a4.746,4.746,0,0,0-1.734,6.5l5.247,9.077-5.25,9.074a4.775,4.775,0,0,0,1.731,6.5l9.083,5.25V81.8a4.756,4.756,0,0,0,4.756,4.756H29.69l5.25,9.083a4.75,4.75,0,0,0,6.5,1.734l9.074-5.25,9.083,5.25a4.759,4.759,0,0,0,6.5-1.734l5.247-9.083H81.8A4.756,4.756,0,0,0,86.557,81.8V71.342l9.083-5.25a4.756,4.756,0,0,0,1.734-6.5Zm-53.5-23.826a7.137,7.137,0,1,1-7.14,7.134A7.137,7.137,0,0,1,38.625,26.692Zm1.427,45.655-7.609-5.7L60.977,28.6l7.609,5.7ZM62.4,74.25a7.137,7.137,0,1,1,7.14-7.134A7.137,7.137,0,0,1,62.4,74.25Z" transform="translate(-0.017 -0.018)" fill="#2bcb7b"/>
  </g>
</svg>
