<svg xmlns="http://www.w3.org/2000/svg" width="20.612" height="19.896" viewBox="0 0 20.612 19.896"><g transform="translate(1199.969 -49.571)"><path d="M-954.393,173.567a1.113,1.113,0,0,1-.569.5c-1.956.967-3.908,1.943-5.865,2.91a.257.257,0,0,0-.166.275c.007.577,0,1.155,0,1.732v.2h-1.244v-.195q0-4.059,0-8.118c0-.612.394-.882.958-.657q3.188,1.275,6.375,2.548a.866.866,0,0,1,.506.479Z" transform="translate(-224.965 -114.091)"/><path d="M-1192.327,53.393a4.289,4.289,0,0,1-.606,2.167q-1.449,2.438-2.907,4.871c-.187.313-.472.312-.657,0-.956-1.623-1.933-3.235-2.857-4.876a3.891,3.891,0,0,1,.114-4.369,3.75,3.75,0,0,1,4-1.5,3.792,3.792,0,0,1,2.863,3.153C-1192.352,53.018-1192.344,53.206-1192.327,53.393Zm-3.839,2.032a1.972,1.972,0,0,0,1.962-1.96,1.968,1.968,0,0,0-1.97-1.97,1.967,1.967,0,0,0-1.96,1.978A1.97,1.97,0,0,0-1196.166,55.425Z" transform="translate(0)"/><path d="M-1194.419,251.655c.247-.414.47-.795.7-1.169a.221.221,0,0,1,.165-.074c.79,0,1.581-.014,2.372,0a2.31,2.31,0,0,1,2.288,2.342,2.3,2.3,0,0,1-2.316,2.291c-1.843.008-3.685,0-5.528,0a1.214,1.214,0,0,0-1.25.927,1.2,1.2,0,0,0,1.15,1.479c.717.009,1.434,0,2.151,0h5.966c.022.422.043.821.065,1.235-.029,0-.086.009-.143.01q-4.01,0-8.021,0a2.454,2.454,0,0,1-2.414-2.067,2.436,2.436,0,0,1,1.761-2.732,2.91,2.91,0,0,1,.754-.093c1.809-.008,3.618,0,5.427,0a1.084,1.084,0,0,0,1.1-.715,1.072,1.072,0,0,0-1.012-1.432c-1.005-.008-2.01,0-3.015,0Z" transform="translate(-0.675 -190.045)"/><path d="M-979.752,362.932a1.565,1.565,0,0,1,1.572-1.569,1.574,1.574,0,0,1,1.572,1.574,1.582,1.582,0,0,1-1.577,1.573A1.572,1.572,0,0,1-979.752,362.932Z" transform="translate(-208.387 -295.042)"/><path d="M-1142.665,109.285a.716.716,0,0,1,.738-.712.722.722,0,0,1,.706.727.734.734,0,0,1-.721.718A.727.727,0,0,1-1142.665,109.285Z" transform="translate(-54.226 -55.832)"/></g></svg>