<?xml version="1.0" encoding="utf-8"?>
<!-- Generator: Adobe Illustrator 25.2.1, SVG Export Plug-In . SVG Version: 6.00 Build 0)  -->
<svg version="1.1" id="Layer_1" xmlns="http://www.w3.org/2000/svg" xmlns:xlink="http://www.w3.org/1999/xlink" x="0px" y="0px"
	 viewBox="0 0 1137 2356.6" style="enable-background:new 0 0 1137 2356.6;" xml:space="preserve">
<style type="text/css">
	.st0{fill:#FFFFFF;stroke:#000000;stroke-miterlimit:10;}
	.st1{fill:#B12325;}
	.st2{fill:#89060E;}
</style>
<rect x="-3.1" y="-3.4" class="st0" width="1130.2" height="2354.4"/>
<path id="Intersection_7" class="st1" d="M28,371.1c-10.5-1.1-20.9-2.8-31.1-5.2V-3.4h1141V251l-1.3,76.4c0,0-267-254.5-457.4-156.8
	C508.7,258,373.4,376.2,121.4,376.2C90.2,376.1,59,374.4,28,371.1z"/>
<path id="Intersection_6" class="st2" d="M679.1,172.8c190.4-97.6,457.4,156.8,457.4,156.8l1.5-90.2c-62.9-63.1-210.4-171-424-83.9
	c-289.3,118-331.4,211.4-726,210.4c13.1,3.6,26.5,6.1,40,7.5c31,3.3,62.2,5,93.5,5.1C373.4,378.4,508.7,260.2,679.1,172.8z"/>
</svg>
