<?xml version="1.0" encoding="utf-8"?>
<!-- Generator: Adobe Illustrator 25.2.0, SVG Export Plug-In . SVG Version: 6.00 Build 0)  -->
<svg version="1.1" id="Layer_1" xmlns="http://www.w3.org/2000/svg" xmlns:xlink="http://www.w3.org/1999/xlink" x="0px" y="0px"
	 viewBox="0 0 198 201" style="enable-background:new 0 0 198 201;" xml:space="preserve">
<style type="text/css">
	.st0{fill:#B12325;}
</style>
<g id="math-percent" transform="translate(5.63 5.631)">
	<g id="Path_5008">
		<path class="st0" d="M115.9,62.5c2.1-2.2,5.6-2.3,7.9-0.2c2.2,2.1,2.3,5.6,0.2,7.9c-0.1,0.1-0.1,0.1-0.2,0.2l-55,55
			c-2.1,2.2-5.6,2.3-7.9,0.2c-2.2-2.1-2.3-5.6-0.2-7.9c0.1-0.1,0.1-0.1,0.2-0.2L115.9,62.5z"/>
	</g>
	<g id="Path_5009">
		<path class="st0" d="M79.7,81.2c-4.7,4.7-12.2,4.7-16.9,0c-4.7-4.7-4.7-12.2,0-16.9c4.7-4.7,12.2-4.7,16.9,0
			C84.4,69,84.4,76.5,79.7,81.2C79.7,81.2,79.7,81.2,79.7,81.2z"/>
	</g>
	<g id="Path_5010">
		<path class="st0" d="M105,123.4c4.7,4.7,12.2,4.7,16.9,0c4.7-4.7,4.7-12.2,0-16.9c-4.7-4.7-12.2-4.7-16.9,0
			C100.4,111.2,100.4,118.8,105,123.4C105,123.4,105,123.4,105,123.4z"/>
	</g>
</g>
<g id="bxs-offer">
	<path class="st0" d="M77.3,190.5c-1.2,0-2.4-0.2-3.6-0.5c-3.6-1-6.5-3.2-8.4-6.4l-8-13.8h-16c-7.6,0-13.8-6.2-13.8-13.8v-15.9
		l-13.8-8c-6.5-3.8-8.8-12.3-5-18.8l8-13.8l-8-13.8c-3.8-6.6-1.6-15.1,5-18.9l13.8-8V43c0-7.6,6.2-13.8,13.8-13.8h15.9l8-13.8
		c3.8-6.6,12.3-8.8,18.8-5l13.8,8l13.8-8C115,8.5,118.7,8,122.3,9c3.5,1,6.5,3.3,8.3,6.4l8,13.8h15.9c7.6,0,13.8,6.2,13.8,13.8v15.9
		l13.8,8c6.6,3.8,8.8,12.3,5,18.8l-8,13.8l8,13.8c3.8,6.6,1.6,15-5,18.8l-13.8,8V156c0,7.6-6.2,13.8-13.8,13.8h-15.9l-8,13.8
		c-3.8,6.6-12.3,8.8-18.8,5l-13.8-8l-15.2,8.7C81.1,190.1,79.2,190.5,77.3,190.5z M41.5,39.6c-1.9,0-3.4,1.5-3.4,3.4v21.9l-19,11
		c-1.6,0.9-2.2,3-1.2,4.6l11,19l-11,19c-0.9,1.6-0.4,3.7,1.3,4.6l18.9,11V156c0,1.9,1.5,3.4,3.4,3.4h22l11,19
		c0.5,0.8,1.2,1.3,2.1,1.6c0.9,0.2,1.8,0.1,2.6-0.3l19-11l19,11c1.6,0.9,3.7,0.4,4.6-1.2l11-19h21.9c1.9,0,3.4-1.5,3.4-3.4v-21.9
		l19-11c1.6-0.9,2.2-3,1.2-4.6l-11-19l11-19c0.9-1.6,0.4-3.7-1.2-4.6l-19-11V43c0-1.9-1.5-3.4-3.4-3.4h-21.9l-11-19
		c-0.4-0.8-1.2-1.4-2.1-1.6c-0.9-0.2-1.8-0.1-2.5,0.3l-19,11l-19-11c-1.6-0.9-3.7-0.4-4.6,1.2l-11,19H41.5z"/>
</g>
</svg>
