<?xml version="1.0" encoding="utf-8"?>
<!-- Generator: Adobe Illustrator 24.2.1, SVG Export Plug-In . SVG Version: 6.00 Build 0)  -->
<svg version="1.1" id="Layer_1" xmlns="http://www.w3.org/2000/svg" xmlns:xlink="http://www.w3.org/1999/xlink" x="0px" y="0px"
	 viewBox="0 0 50 50" style="enable-background:new 0 0 50 50;" xml:space="preserve">
<style type="text/css">
	.st0{fill-rule:evenodd;clip-rule:evenodd;fill:#B12325;}
	.st1{fill:none;stroke:#B12325;stroke-width:2.2503;stroke-linecap:round;stroke-miterlimit:10.0012;}
	.st2{fill:#B12325;}
</style>
<g>
	<g id="hourglass-split" transform="matrix(0.848, 0.53, -0.53, 0.848, 26.398, 9.426)">
		<path id="Path_1" class="st0" d="M-2.6,27.6c-0.5,0-0.8-0.4-0.8-0.8c0-0.5,0.4-0.8,0.8-0.8H-1l0-1.7c0-2.9,1.7-5.5,4.3-6.8
			C3.7,17.3,4,17,4,16.5v-1.2c0-0.4-0.3-0.8-0.7-1C0.7,13.1-1,10.5-1,7.6l0-1.7h-1.7c-0.5,0-0.8-0.4-0.8-0.8s0.4-0.8,0.8-0.8h18.4
			c0.5,0,0.8,0.4,0.8,0.8c0,0.5-0.4,0.8-0.8,0.8h-1.7v1.7c0,2.9-1.7,5.5-4.3,6.8c-0.4,0.2-0.7,0.5-0.7,1v1.2c0,0.4,0.3,0.8,0.7,1
			c2.6,1.3,4.3,3.9,4.3,6.8V26h1.7c0.5,0,0.8,0.4,0.8,0.8c0,0.5-0.4,0.8-0.8,0.8H-2.6z M0.7,5.9v1.7c0,0.9,0.2,1.7,0.6,2.5h10.6
			c0.4-0.8,0.6-1.6,0.6-2.5V5.9L0.7,5.9L0.7,5.9z M5.7,16.5C5.7,17.6,5,18.6,4,19c-2,1-3.3,3-3.3,5.3c0,0,1.4-2.2,5-2.5
			C5.7,21.8,5.7,16.5,5.7,16.5z M7.4,16.5c0,1.1,0.7,2.1,1.7,2.5c2,1,3.3,3,3.3,5.3c0,0-1.4-2.2-5-2.5C7.4,21.8,7.4,16.5,7.4,16.5z"
			/>
	</g>
	<g id="reload-outline" transform="matrix(0.966, -0.259, 0.259, 0.966, -3.047, 11.414)">
		<path id="Path_2" class="st1" d="M39.8,10.2l-2.2-2.5C30.1-0.2,17.5-0.5,9.6,7.1S1.4,27.2,8.9,35.1s20.1,8.2,28.1,0.6
			c2.3-2.2,4-4.8,5-7.7"/>
		<path id="Path_3" class="st2" d="M46.9,5v9.9c0,0.8-0.6,1.4-1.4,1.4h-9.9c-0.8,0-1.4-0.6-1.4-1.4c0-0.4,0.2-0.7,0.4-1l9.9-9.9
			c0.6-0.6,1.5-0.6,2,0C46.7,4.2,46.9,4.6,46.9,5z"/>
	</g>
</g>
</svg>
