<?xml version="1.0" encoding="utf-8"?>
<!-- Generator: Adobe Illustrator 24.2.1, SVG Export Plug-In . SVG Version: 6.00 Build 0)  -->
<svg version="1.1" id="Layer_1" xmlns="http://www.w3.org/2000/svg" xmlns:xlink="http://www.w3.org/1999/xlink" x="0px" y="0px"
	 viewBox="0 0 50 50" style="enable-background:new 0 0 50 50;" xml:space="preserve">
<style type="text/css">
	.st0{fill:#FFFFFF;}
	.st1{fill:#B12325;}
	.st2{fill-rule:evenodd;clip-rule:evenodd;fill:#B12325;}
</style>
<path id="Icon_ionic-ios-search" class="st0" d="M-15.8,39l-13.5-13.7c6.6-8.3,5.2-20.5-3.1-27.1S-53-7-59.6,1.4s-5.2,20.5,3.1,27.1
	c7.1,5.6,17.2,5.6,24.2-0.1l13.4,13.6c0.8,0.8,2.1,0.9,2.9,0.1C-15.1,41.2-15,39.9-15.8,39z M-44.5,28.5c-8.4,0-15.2-6.8-15.2-15.2
	S-53-2-44.6-2s15.2,6.8,15.2,15.2c0,4-1.6,7.9-4.4,10.8C-36.6,26.9-40.5,28.5-44.5,28.5L-44.5,28.5z"/>
<g>
	<g>
		<g>
			<path class="st1" d="M85.7,5c-9,0-16.4,7.3-16.4,16.4c0,2.7,0.7,5.4,2,7.8l13.5,24.4c0.2,0.3,0.5,0.5,0.9,0.5
				c0.4,0,0.7-0.2,0.9-0.5l13.5-24.4c1.3-2.4,2-5.1,2-7.8C102.1,12.4,94.7,5,85.7,5z M98.3,28.2L85.7,51L73.1,28.2
				c-1.1-2.1-1.7-4.4-1.7-6.8c0-7.9,6.4-14.3,14.3-14.3S100,13.5,100,21.4C100,23.8,99.4,26.1,98.3,28.2z"/>
			<path class="st1" d="M85.7,13.2c-4.5,0-8.2,3.7-8.2,8.2c0,4.5,3.7,8.2,8.2,8.2s8.2-3.7,8.2-8.2S90.2,13.2,85.7,13.2z M85.7,27.5
				c-3.4,0-6.1-2.8-6.1-6.1s2.8-6.1,6.1-6.1s6.1,2.8,6.1,6.1C91.8,24.8,89.1,27.5,85.7,27.5z"/>
		</g>
	</g>
</g>
<path id="ios-send" class="st1" d="M92-33.1L48.4-14c-0.5,0.2-0.7,0.8-0.5,1.3c0.1,0.2,0.3,0.4,0.5,0.5l11.8,6.7
	c0.7,0.4,1.6,0.3,2.2-0.2l23.3-20.1c0.2-0.1,0.5-0.4,0.7-0.2s-0.1,0.5-0.2,0.7L66-2.7c-0.6,0.6-0.6,1.6-0.2,2.3l7.7,12.4
	c0.2,0.5,0.9,0.7,1.3,0.4c0.2-0.1,0.4-0.3,0.5-0.5l18.1-43.6c0.2-0.5,0-1.1-0.5-1.3C92.6-33.2,92.3-33.2,92-33.1L92-33.1z"/>
<g id="time" transform="translate(-3 -3)">
	<path id="Path_1" class="st1" d="M20.8,16h4.8v12h12v4.8H20.8V16z"/>
	<path id="Path_2" class="st2" d="M52,28c0,13.2-10.7,24-24,24S4,41.2,4,28S14.8,4,28,4S52,14.8,52,28z M47.2,28
		c0,10.6-8.6,19.2-19.2,19.2S8.8,38.6,8.8,28S17.4,8.8,28,8.8S47.2,17.4,47.2,28z"/>
</g>
</svg>
