<?xml version="1.0" encoding="utf-8"?>
<!-- Generator: Adobe Illustrator 24.2.1, SVG Export Plug-In . SVG Version: 6.00 Build 0)  -->
<svg version="1.1" id="Layer_1" xmlns="http://www.w3.org/2000/svg" xmlns:xlink="http://www.w3.org/1999/xlink" x="0px" y="0px"
	 viewBox="0 0 50 50" style="enable-background:new 0 0 50 50;" xml:space="preserve">
<style type="text/css">
	.st0{fill:#B12325;}
</style>
<g>
	<g>
		<g>
			<path class="st0" d="M25.6,1c-8.8,0-16,7.1-16,16c0,2.6,0.7,5.3,2,7.6l13.2,23.9c0.2,0.3,0.5,0.5,0.9,0.5s0.7-0.2,0.9-0.5
				l13.2-23.9c1.3-2.3,2-5,2-7.6C41.7,8.2,34.4,1,25.6,1z M38,23.7L25.6,46L13.3,23.7c-1.1-2.1-1.7-4.3-1.7-6.7c0-7.7,6.3-14,14-14
				s14,6.3,14,14C39.6,19.4,39,21.6,38,23.7z"/>
			<path class="st0" d="M25.6,9c-4.4,0-8,3.6-8,8s3.6,8,8,8s8-3.6,8-8S30,9,25.6,9z M25.6,23.1c-3.3,0-6-2.7-6-6s2.7-6,6-6
				s6,2.7,6,6S29,23.1,25.6,23.1z"/>
		</g>
	</g>
</g>
</svg>
