<?xml version="1.0" encoding="utf-8"?>
<!-- Generator: Adobe Illustrator 25.2.0, SVG Export Plug-In . SVG Version: 6.00 Build 0)  -->
<svg version="1.1" id="Layer_1" xmlns="http://www.w3.org/2000/svg" xmlns:xlink="http://www.w3.org/1999/xlink" x="0px" y="0px"
	 viewBox="0 0 198 201" style="enable-background:new 0 0 198 201;" xml:space="preserve">
<style type="text/css">
	.st0{fill:#B12325;}
</style>
<g id="Icon_feather-gift" transform="translate(-2.5 -2.5)">
	<g id="Path_8657">
		<path class="st0" d="M167.8,190.5H31.2c-2.8,0-5.1-2.3-5.1-5.1V100c0-2.8,2.3-5.1,5.1-5.1s5.1,2.3,5.1,5.1v80.3h126.5V100
			c0-2.8,2.3-5.1,5.1-5.1c2.8,0,5.1,2.3,5.1,5.1v85.4C172.9,188.2,170.6,190.5,167.8,190.5z"/>
	</g>
	<g id="Path_8658">
		<path class="st0" d="M184.9,105.1H14.1c-2.8,0-5.1-2.3-5.1-5.1V57.3c0-2.8,2.3-5.1,5.1-5.1h170.9c2.8,0,5.1,2.3,5.1,5.1V100
			C190,102.8,187.7,105.1,184.9,105.1z M19.1,94.9h160.7V62.4H19.1V94.9z"/>
	</g>
	<g id="Path_8659">
		<path class="st0" d="M99.5,190.5c-2.8,0-5.1-2.3-5.1-5.1V57.3c0-2.8,2.3-5.1,5.1-5.1c2.8,0,5.1,2.3,5.1,5.1v128.1
			C104.6,188.2,102.3,190.5,99.5,190.5z"/>
	</g>
	<g id="Path_8660">
		<path class="st0" d="M99.5,62.4H61c-14.6,0-26.4-11.9-26.4-26.4S46.4,9.5,61,9.5c33.7,0,43.1,44.9,43.5,46.8
			c0.3,1.5-0.1,3-1.1,4.2C102.5,61.7,101,62.4,99.5,62.4z M61,19.6c-9,0-16.3,7.3-16.3,16.3S52,52.2,61,52.2h31.9
			C89.4,41.3,80.1,19.6,61,19.6z"/>
	</g>
	<g id="Path_8661">
		<path class="st0" d="M137.9,62.4H99.5c-1.5,0-3-0.7-3.9-1.9c-1-1.2-1.3-2.7-1.1-4.2c0.4-1.9,9.7-46.8,43.4-46.8
			c14.6,0,26.4,11.9,26.4,26.4S152.5,62.4,137.9,62.4z M106.1,52.2h31.8c9,0,16.3-7.3,16.3-16.3s-7.3-16.3-16.3-16.3
			C118.9,19.6,109.6,41.3,106.1,52.2z"/>
	</g>
</g>
</svg>
