<?xml version="1.0" encoding="utf-8"?>
<!-- Generator: Adobe Illustrator 25.2.0, SVG Export Plug-In . SVG Version: 6.00 Build 0)  -->
<svg version="1.1" id="Layer_1" xmlns="http://www.w3.org/2000/svg" xmlns:xlink="http://www.w3.org/1999/xlink" x="0px" y="0px"
	 viewBox="0 0 198 201" style="enable-background:new 0 0 198 201;" xml:space="preserve">
<style type="text/css">
	.st0{fill:#B12325;}
	.st1{fill:#FFFFFF;}
</style>
<g id="Group_8428">
	<g id="Group_8241_1_" transform="translate(0 0)">
		<g id="Path_8572_1_">
			<path d="M101.9,187.4h-6.1c-22.6,0-43.8-8.8-59.8-24.8c-16-16-24.8-37.2-24.8-59.8S20,59,36,43c16-16,37.2-24.8,59.8-24.8h6.1
				c22.6,0,43.8,8.8,59.8,24.8c16,16,24.8,37.2,24.8,59.8s-8.8,43.8-24.8,59.8C145.7,178.6,124.5,187.4,101.9,187.4z"/>
			<path class="st0" d="M95.8,24.9C75,24.9,55.4,33,40.7,47.7C25.9,62.4,17.8,82,17.8,102.8s8.1,40.4,22.8,55.1
				c14.7,14.7,34.3,22.8,55.1,22.8h6.1c20.8,0,40.4-8.1,55.1-22.8c14.7-14.7,22.8-34.3,22.8-55.1s-8.1-40.4-22.8-55.1
				c-14.7-14.7-34.3-22.8-55.1-22.8H95.8 M95.8,11.7h6.1c50.4,0,91.2,40.8,91.2,91.2S152.2,194,101.9,194h-6.1
				c-50.4,0-91.2-40.8-91.2-91.2S45.4,11.7,95.8,11.7z"/>
		</g>
	</g>
</g>
<path id="Icon_material-cancel" class="st1" d="M129.9,122.9l-7.4,7.4l-18.9-18.9l-18.9,18.9l-7.4-7.4L96.1,104L77.2,85.1l7.4-7.4
	l18.9,18.9l18.9-18.9l7.4,7.4L111,104L129.9,122.9z"/>
</svg>
