<svg xmlns="http://www.w3.org/2000/svg" width="20.4" height="17" viewBox="0 0 20.4 17"><defs><style>.a{fill:#fff;}</style></defs><path class="a" d="M24.883,13.379a.85.85,0,0,0-.053-.164L22.823,8.532a3.068,3.068,0,0,0-2.87-1.782H9.447A3.066,3.066,0,0,0,6.578,8.532L4.569,13.215a.835.835,0,0,0-.069.335V22.9a.85.85,0,0,0,.85.85h1.7a.85.85,0,0,0,.85-.85v-.85H21.5v.85a.85.85,0,0,0,.85.85h1.7a.85.85,0,0,0,.85-.85V13.55a.858.858,0,0,0-.017-.171ZM8.75,18.65a1.7,1.7,0,1,1,1.7-1.7A1.7,1.7,0,0,1,8.75,18.65Zm11.9,0a1.7,1.7,0,1,1,1.7-1.7A1.7,1.7,0,0,1,20.65,18.65ZM6.639,12.7l1.5-3.5A1.4,1.4,0,0,1,9.447,8.45H19.953a1.4,1.4,0,0,1,1.308.752l1.5,3.5Z" transform="translate(-4.5 -6.75)"/></svg>