<?xml version="1.0" encoding="utf-8"?>
<!-- Generator: Adobe Illustrator 24.2.1, SVG Export Plug-In . SVG Version: 6.00 Build 0)  -->
<svg version="1.1" id="Capa_1" xmlns="http://www.w3.org/2000/svg" xmlns:xlink="http://www.w3.org/1999/xlink" x="0px" y="0px"
	 viewBox="0 0 50 50" style="enable-background:new 0 0 50 50;" xml:space="preserve">
<style type="text/css">
	.st0{display:none;}
	.st1{display:inline;}
	.st2{fill:none;stroke:#FFFFFF;stroke-miterlimit:10;}
	.st3{display:none;fill:#FFFFFF;}
	.st4{fill:#B12325;}
</style>
<g class="st0">
	<g class="st1">
		<path class="st2" d="M26-22.1c-25.9,0-46.9,21-46.9,46.9S0.1,71.6,26,71.6s46.9-21,46.9-46.9S51.9-22.1,26-22.1z M26,34.1
			L7.3,15.4h37.5L26,34.1z"/>
	</g>
</g>
<polygon class="st3" points="7.3,15.4 44.8,15.4 26,34.1 "/>
<g>
	<path class="st4" d="M23.7,45.3c0.3-0.3,0.7-0.6,1-1C24,33.2,23.1,22,22.6,10.8c-0.2-4.7-1.9-6.9-4.8-8.2C12.6,0.1,6.5,2.3,3.2,7.7
		c-3.1,5.1-3.5,11.8,0.1,16C9.8,31.4,16.9,38.2,23.7,45.3z M27.9,50c6.5-7.8,12.2-14.3,17.7-21.3c1.6-2.1,3-5.3,3.4-8.2
		c0.8-5.5-1.5-9.6-5-12.3c-4.2-3.3-8.7-3.5-13-0.4c-1.3,1-3,3.2-3,4.8C27.8,24.6,27.9,36.6,27.9,50z"/>
	<path class="st4" d="M23.7,45.3C16.9,38.2,9.8,31.4,3.4,23.7c-3.6-4.3-3.2-10.9-0.1-16c3.3-5.4,9.4-7.6,14.6-5.1
		c2.9,1.4,4.6,3.5,4.8,8.2C23.1,22,24,33.2,24.7,44.3C24.3,44.6,24,45,23.7,45.3z"/>
	<path class="st4" d="M27.9,50c0-13.4-0.1-25.4,0.1-37.5c0-1.7,1.7-3.9,3-4.8c4.3-3.1,8.7-2.9,13,0.4c3.5,2.8,5.8,6.8,5,12.3
		c-0.4,3-1.8,6.1-3.4,8.2C40.2,35.7,34.4,42.2,27.9,50z"/>
</g>
</svg>
