<?xml version="1.0" encoding="utf-8"?>
<!-- Generator: Adobe Illustrator 25.2.1, SVG Export Plug-In . SVG Version: 6.00 Build 0)  -->
<svg version="1.1" id="Layer_1" xmlns="http://www.w3.org/2000/svg" xmlns:xlink="http://www.w3.org/1999/xlink" x="0px" y="0px"
	 viewBox="0 0 198 201" style="enable-background:new 0 0 198 201;" xml:space="preserve">
<style type="text/css">
	.st0{fill:#FFFFFF;}
</style>
<g id="Rectangle_68">
	<path d="M43.7,10h108.6c20,0,36.2,16.2,36.2,36.2v108.6c0,20-16.2,36.2-36.2,36.2H43.7c-20,0-36.2-16.2-36.2-36.2V46.2
		C7.5,26.2,23.7,10,43.7,10z"/>
</g>
<g id="Path_1199_1_">
	<path class="st0" d="M81.8,145.7l-34-33.1c-5.4-5.2-5.5-13.8-0.3-19.2c5.2-5.4,13.8-5.5,19.2-0.3L81.9,108L133,59
		c5.4-5.2,14-5,19.2,0.4s5,14-0.4,19.2L81.8,145.7z"/>
</g>
</svg>
