<?xml version="1.0" encoding="utf-8"?>
<!-- Generator: Adobe Illustrator 24.2.1, SVG Export Plug-In . SVG Version: 6.00 Build 0)  -->
<svg version="1.1" id="Layer_1" xmlns="http://www.w3.org/2000/svg" xmlns:xlink="http://www.w3.org/1999/xlink" x="0px" y="0px"
	 viewBox="0 0 50 50" style="enable-background:new 0 0 50 50;" xml:space="preserve">
<style type="text/css">
	.st0{fill:#DF3C2A;stroke:#FFFFFF;stroke-miterlimit:10;}
</style>
<path id="ok-circle" class="st0" d="M25.3,6.7c-9.9,0-18,8.1-18,18s8.1,18,18,18s18-8.1,18-18S35.2,6.7,25.3,6.7z M25.3,10.6
	c7.8,0,14.1,6.3,14.1,14.1S33,38.8,25.3,38.8s-14.1-6.3-14.1-14.1c0,0,0,0,0,0C11.2,16.9,17.5,10.6,25.3,10.6z"/>
<g>
	<g>
		<path class="st0" d="M47.4,7.5c-0.7-0.7-1.7-0.7-2.4,0L24.5,27.9l-7.9-7.9c-0.7-0.7-1.7-0.7-2.4,0c-0.7,0.7-0.7,1.7,0,2.4l9.1,9.1
			c0.7,0.7,1.7,0.7,2.4,0L47.4,9.9C48.1,9.2,48.1,8.2,47.4,7.5z"/>
	</g>
</g>
</svg>
